<svg width="40" height="40" viewBox="0 0 40 40" fill="none" xmlns="http://www.w3.org/2000/svg">
<path d="M8 3.5C7.31673 6.33248 7.12462 8.49296 7 13L6.5 30C6.44499 32.4647 6.43143 33.7885 6.5 36C6.5 36 24 37.5 27 37C30 36.5 32.8586 33.7799 33.5 28V11.5C33.5 9.5 32.5 5.5 29.5 4C26.5 2.5 8 3.5 8 3.5Z" fill="black"/>
<path d="M33.5 28C32.8586 33.7799 30 36.5 27 37C24 37.5 6.5 36 6.5 36C6.43143 33.7885 6.44499 32.4647 6.5 30L7 13C7.12462 8.49296 7.31673 6.33248 8 3.5C8 3.5 26.5 2.5 29.5 4C32.5 5.5 33.5 9.5 33.5 11.5M33.5 28C33.5 28 33.5 13.5 33.5 11.5M33.5 28V11.5" stroke="black" stroke-linejoin="round"/>
<g clip-path="url(#clip0_1_2)">
<path d="M26.0041 26.569C26.6051 27.2266 26.1111 28.2827 25.2211 28.2427L12.6479 27.6777C12.0962 27.6529 11.6691 27.1856 11.6938 26.6338L12.3223 12.6479C12.3471 12.0962 12.8144 11.6691 13.3662 11.6938L25.9393 12.2588C26.8293 12.2988 27.2266 13.3949 26.569 13.9959L20 20L26.0041 26.569Z" fill="url(#paint0_linear_1_2)"/>
</g>
<defs>
<linearGradient id="paint0_linear_1_2" x1="28.351" y1="12.3672" x2="11.649" y2="27.6328" gradientUnits="userSpaceOnUse">
<stop offset="0.445" stop-color="#4DFF95"/>
<stop offset="0.565" stop-color="#FFEC00"/>
</linearGradient>
<clipPath id="clip0_1_2">
<rect width="16" height="16" fill="white" transform="translate(12.3672 11.649) rotate(2.57277)"/>
</clipPath>
</defs>
</svg>
