<svg width="16" height="16" viewBox="0 0 16 16" fill="none" xmlns="http://www.w3.org/2000/svg">
<g clip-path="url(#clip0_7_11)">
<g filter="url(#filter0_d_7_11)">
<path d="M3.33333 1.58333C3.06761 2.68485 2.9929 3.52504 2.94444 5.27778L2.74999 11.8889C2.7286 12.8474 2.72333 13.3622 2.74999 14.2222C2.74999 14.2222 9.55555 14.8056 10.7222 14.6111C11.8889 14.4167 13.0005 13.3589 13.25 11.1111V4.69444C13.25 3.91667 12.8611 2.36111 11.6944 1.77778C10.5278 1.19444 3.33333 1.58333 3.33333 1.58333Z" fill="#4DFF95"/>
<path d="M3.33333 1.58333C3.06761 2.68485 2.9929 3.52504 2.94444 5.27778L2.74999 11.8889C2.7286 12.8474 2.72333 13.3622 2.74999 14.2222C2.74999 14.2222 9.55555 14.8056 10.7222 14.6111C11.8889 14.4167 13.0005 13.3589 13.25 11.1111V4.69444C13.25 3.91667 12.8611 2.36111 11.6944 1.77778C10.5278 1.19444 3.33333 1.58333 3.33333 1.58333Z" fill="black" fill-opacity="0.2"/>
<path d="M13.25 11.1111C13.0005 13.3589 11.8889 14.4167 10.7222 14.6111C9.55555 14.8056 2.74999 14.2222 2.74999 14.2222C2.72333 13.3622 2.7286 12.8474 2.74999 11.8889L2.94444 5.27778C2.9929 3.52504 3.06761 2.68485 3.33333 1.58333C3.33333 1.58333 10.5278 1.19444 11.6944 1.77778C12.8611 2.36111 13.25 3.91667 13.25 4.69444M13.25 11.1111C13.25 11.1111 13.25 5.47222 13.25 4.69444M13.25 11.1111V4.69444" stroke="#4DFF95" stroke-width="0.388889" stroke-linejoin="round"/>
<path d="M13.25 11.1111C13.0005 13.3589 11.8889 14.4167 10.7222 14.6111C9.55555 14.8056 2.74999 14.2222 2.74999 14.2222C2.72333 13.3622 2.7286 12.8474 2.74999 11.8889L2.94444 5.27778C2.9929 3.52504 3.06761 2.68485 3.33333 1.58333C3.33333 1.58333 10.5278 1.19444 11.6944 1.77778C12.8611 2.36111 13.25 3.91667 13.25 4.69444M13.25 11.1111C13.25 11.1111 13.25 5.47222 13.25 4.69444M13.25 11.1111V4.69444" stroke="black" stroke-opacity="0.2" stroke-width="0.388889" stroke-linejoin="round"/>
</g>
<g clip-path="url(#clip1_7_11)">
<path d="M10.3349 10.5546C10.5687 10.8104 10.3765 11.221 10.0304 11.2055L5.14087 10.9858C4.92631 10.9761 4.76019 10.7944 4.76983 10.5798L5.01422 5.14087C5.02386 4.92631 5.20561 4.76019 5.42017 4.76983L10.3097 4.98953C10.6558 5.00508 10.8104 5.43134 10.5546 5.66508L8 8L10.3349 10.5546Z" fill="#FFEC00"/>
</g>
</g>
<defs>
<filter id="filter0_d_7_11" x="-3" y="1" width="22" height="22" filterUnits="userSpaceOnUse" color-interpolation-filters="sRGB">
<feFlood flood-opacity="0" result="BackgroundImageFix"/>
<feColorMatrix in="SourceAlpha" type="matrix" values="0 0 0 0 0 0 0 0 0 0 0 0 0 0 0 0 0 0 127 0" result="hardAlpha"/>
<feOffset dy="4"/>
<feGaussianBlur stdDeviation="2"/>
<feComposite in2="hardAlpha" operator="out"/>
<feColorMatrix type="matrix" values="0 0 0 0 0 0 0 0 0 0 0 0 0 0 0 0 0 0 0.25 0"/>
<feBlend mode="normal" in2="BackgroundImageFix" result="effect1_dropShadow_7_11"/>
<feBlend mode="normal" in="SourceGraphic" in2="effect1_dropShadow_7_11" result="shape"/>
</filter>
<clipPath id="clip0_7_11">
<rect width="16" height="16" fill="white"/>
</clipPath>
<clipPath id="clip1_7_11">
<rect width="6.22222" height="6.22222" fill="white" transform="translate(5.03168 4.75237) rotate(2.57277)"/>
</clipPath>
</defs>
</svg>
