<svg width="500" height="500" viewBox="0 0 500 500" fill="none" xmlns="http://www.w3.org/2000/svg">
<rect width="500" height="500" rx="32" fill="#4DFF95"/>
<path d="M100 43.75C91.4592 79.156 89.0578 106.162 87.5 162.5L81.25 375C80.5624 405.809 80.3929 422.357 81.25 450C81.25 450 300 468.75 337.5 462.5C375 456.25 410.732 422.249 418.75 350V143.75C418.75 118.75 406.25 68.75 368.75 50C331.25 31.25 100 43.75 100 43.75Z" fill="black"/>
<path d="M418.75 350C410.732 422.249 375 456.25 337.5 462.5C300 468.75 81.25 450 81.25 450C80.3929 422.357 80.5624 405.809 81.25 375L87.5 162.5C89.0578 106.162 91.4592 79.156 100 43.75C100 43.75 331.25 31.25 368.75 50C406.25 68.75 418.75 118.75 418.75 143.75M418.75 350C418.75 350 418.75 168.75 418.75 143.75M418.75 350V143.75" stroke="black" stroke-width="12.5" stroke-linejoin="round"/>
<g clip-path="url(#clip0_1_19)">
<path d="M325.051 332.113C332.564 340.333 326.388 353.533 315.263 353.033L158.099 345.971C151.203 345.662 145.863 339.82 146.173 332.923L154.029 158.099C154.338 151.203 160.18 145.863 167.077 146.173L324.241 153.235C335.366 153.735 340.333 167.436 332.113 174.949L250 250L325.051 332.113Z" fill="#FFEC00"/>
</g>
<defs>
<clipPath id="clip0_1_19">
<rect width="200" height="200" fill="white" transform="translate(154.59 145.612) rotate(2.57277)"/>
</clipPath>
</defs>
</svg>
